Coordinates
version=1
nRows=5
nColumns=46
inDegrees=yes

Units are S.I. units (second, meters, Newtons, ...)
Angles are in degrees.

endheader
time	pelvis_tilt	pelvis_list	pelvis_rotation	pelvis_tx	pelvis_ty	pelvis_tz	bb_angle	bb_tx	bb_ty	bb_tz	hip_flexion_r	hip_adduction_r	hip_rotation_r	knee_angle_r	knee_angle_r_beta	ankle_angle_r	subtalar_angle_r	mtp_angle_r	crank_angle_r	hip_flexion_l	hip_adduction_l	hip_rotation_l	knee_angle_l	knee_angle_l_beta	ankle_angle_l	subtalar_angle_l	mtp_angle_l	crank_angle_l	lumbar_extension	lumbar_bending	lumbar_rotation	arm_flex_r	arm_add_r	arm_rot_r	elbow_flex_r	pro_sup_r	wrist_flex_r	wrist_dev_r	arm_flex_l	arm_add_l	arm_rot_l	elbow_flex_l	pro_sup_l	wrist_flex_l	wrist_dev_l
      0.00000000	    -28.54982474	    -32.71359700	     -2.73936271	      0.10553528	      1.01383633	     -0.27153032	      0.00000000	      0.50000000	      0.00000000	      0.25000000	     61.35275607	     21.08318477	    -23.55469684	     55.34593380	      0.96596877	     17.34201141	    -13.94597514	      0.00000000	      0.00000000	    119.98527029	     -0.41755899	     39.96393667	    111.57585591	      1.94736605	     23.09582972	      6.16834960	      0.00000000	      0.00000000	    -30.09445968	     32.07935089	     16.47477181	     87.43045993	    -10.66051995	     82.94301072	     19.88134645	     68.64724804	      0.00000000	      0.00000000	     86.56640602	    -11.94447228	     86.29713472	     15.32636248	     81.36968642	      0.00000000	      0.00000000
      0.00500000	    -28.53907565	    -32.71732854	     -2.73804283	      0.10555300	      1.01384390	     -0.27153601	      0.00000000	      0.50000000	      0.00000000	      0.25000000	     61.34096009	     21.08990430	    -23.55569569	     55.34715936	      0.96599016	     17.34263351	    -13.94505569	      0.00000000	      0.00000000	    119.98525736	     -0.42309600	     39.96395431	    111.58178937	      1.94746961	     23.09540789	      6.16725070	      0.00000000	      0.00000000	    -30.10730670	     32.06958876	     16.46676067	     87.42970344	    -10.66193764	     82.94038502	     19.88069500	     68.64667945	      0.00000000	      0.00000000	     86.56677486	    -11.94334605	     86.29284444	     15.32667326	     81.36788546	      0.00000000	      0.00000000
      0.01000000	    -28.53326507	    -32.71922714	     -2.73851245	      0.10555790	      1.01384793	     -0.27153159	      0.00000000	      0.50000000	      0.00000000	      0.25000000	     61.33374998	     21.09549042	    -23.55705060	     55.34661908	      0.96598073	     17.34422745	    -13.94417094	      0.00000000	      0.00000000	    119.98524920	     -0.42711319	     39.96396147	    111.58635008	      1.94754921	     23.09393836	      6.16689262	      0.00000000	      0.00000000	    -30.11501424	     32.06235525	     16.46299521	     87.42906776	    -10.66190723	     82.93780756	     19.88056164	     68.64613983	      0.00000000	      0.00000000	     86.56864594	    -11.94328805	     86.28839856	     15.32639708	     81.36597211	      0.00000000	      0.00000000
      0.01500000	    -28.52057119	    -32.71944391	     -2.73074882	      0.10551861	      1.01379619	     -0.27153075	      0.00000000	      0.50000000	      0.00000000	      0.25000000	     61.31668272	     21.10780290	    -23.55010402	     55.33327525	      0.96574784	     17.35801554	    -13.94814648	      0.00000000	      0.00000000	    119.98524491	     -0.42312274	     39.96386697	    111.58542526	      1.94753307	     23.09221668	      6.16658778	      0.00000000	      0.00000000	    -30.11942690	     32.05556257	     16.45941724	     87.42987403	    -10.66179824	     82.93508258	     19.88058385	     68.64554832	      0.00000000	      0.00000000	     86.57190800	    -11.94333349	     86.28387484	     15.32582312	     81.36396784	      0.00000000	      0.00000000
      0.02000000	    -28.52172374	    -32.72708186	     -2.72517817	      0.10552945	      1.01383169	     -0.27148921	      0.00000000	      0.50000000	      0.00000000	      0.25000000	     61.31449558	     21.11929882	    -23.53878486	     55.31519672	      0.96543231	     17.37212514	    -13.94988030	      0.00000000	      0.00000000	    119.98524067	     -0.42169460	     39.96398301	    111.58542409	      1.94753305	     23.09226533	      6.16516691	      0.00000000	      0.00000000	    -30.12538125	     32.05330670	     16.45515588	     87.42934811	    -10.65945890	     82.93258259	     19.88144524	     68.64507380	      0.00000000	      0.00000000	     86.57231571	    -11.93980296	     86.28034099	     15.32704497	     81.36239253	      0.00000000	      0.00000000
